<?xml version="1.0" encoding="utf-8"?>
<svg width="512px" height="512px" viewBox="0 0 512 512" version="1.1" xmlns:xlink="http://www.w3.org/1999/xlink" xmlns="http://www.w3.org/2000/svg">
  <defs>
    <path d="M512 0L512 0L512 512L0 512L0 0L512 0Z" id="path_1" />
    <path d="M7.04526 126.739L20.6355 114.654C20.6355 114.654 140.776 7.8195 140.776 7.8195C140.776 7.8195 149.165 -0.194811 158 0.00362197C166.835 0.202054 176.116 8.61323 176.116 8.61323L302.048 120.597L309.023 126.8Q309.433 127.164 309.823 127.55Q310.213 127.935 310.583 128.341Q310.952 128.747 311.299 129.171Q311.647 129.596 311.971 130.038Q312.296 130.481 312.596 130.94Q312.897 131.398 313.173 131.872Q313.45 132.347 313.7 132.835Q313.951 133.322 314.176 133.823Q314.4 134.323 314.598 134.835Q314.796 135.347 314.967 135.868Q315.138 136.389 315.281 136.919Q315.424 137.449 315.539 137.985Q315.654 138.522 315.74 139.063Q315.827 139.605 315.884 140.151Q315.942 140.696 315.971 141.244Q316 141.792 316 142.341L316 346.004Q316 346.52 315.975 347.034Q315.949 347.549 315.899 348.062Q315.848 348.575 315.773 349.085Q315.697 349.595 315.596 350.101Q315.496 350.607 315.371 351.107Q315.245 351.607 315.096 352.1Q314.946 352.593 314.772 353.079Q314.599 353.564 314.401 354.04Q314.204 354.517 313.984 354.983Q313.763 355.449 313.52 355.903Q313.277 356.358 313.012 356.8Q312.747 357.242 312.461 357.671Q312.174 358.1 311.867 358.514Q311.56 358.928 311.233 359.326Q310.906 359.725 310.56 360.107Q310.214 360.489 309.849 360.853Q309.485 361.218 309.103 361.564Q308.721 361.91 308.322 362.237Q307.924 362.564 307.51 362.871Q307.096 363.178 306.667 363.465Q306.238 363.751 305.796 364.016Q305.354 364.281 304.899 364.524Q304.445 364.767 303.979 364.988Q303.513 365.208 303.036 365.405Q302.56 365.603 302.075 365.776Q301.589 365.95 301.096 366.1Q300.603 366.249 300.103 366.375Q299.602 366.5 299.097 366.6Q298.591 366.701 298.081 366.777Q297.571 366.852 297.058 366.903Q296.545 366.953 296.03 366.979Q295.516 367.004 295 367.004L21 367.004Q20.4845 367.004 19.9696 366.979Q19.4547 366.953 18.9416 366.903Q18.4286 366.852 17.9187 366.777Q17.4087 366.701 16.9031 366.6Q16.3975 366.5 15.8974 366.375Q15.3973 366.249 14.904 366.1Q14.4107 365.95 13.9253 365.776Q13.4399 365.603 12.9636 365.405Q12.4874 365.208 12.0213 364.988Q11.5553 364.767 11.1007 364.524Q10.646 364.281 10.2038 364.016Q9.76166 363.751 9.33302 363.465Q8.90438 363.178 8.49031 362.871Q8.07624 362.564 7.67774 362.237Q7.27924 361.91 6.89726 361.564Q6.51529 361.218 6.15076 360.853Q5.78623 360.489 5.44003 360.107Q5.09382 359.725 4.76678 359.326Q4.43974 358.928 4.13264 358.514Q3.82555 358.1 3.53914 357.671Q3.25273 357.242 2.9877 356.8Q2.72267 356.358 2.47965 355.903Q2.23664 355.449 2.01622 354.983Q1.79581 354.517 1.59853 354.04Q1.40125 353.564 1.22757 353.079Q1.0539 352.593 0.904253 352.1Q0.754605 351.607 0.629344 351.107Q0.504082 350.607 0.403509 350.101Q0.302936 349.595 0.227293 349.085Q0.151651 348.575 0.101121 348.062Q0.0505908 347.549 0.0252954 347.034Q0 346.52 0 346.004L0 142.432Q0 141.878 0.0292071 141.325Q0.0584143 140.771 0.116747 140.221Q0.17508 139.67 0.262377 139.123Q0.349674 138.576 0.465691 138.034Q0.581708 137.492 0.726124 136.957Q0.87054 136.423 1.04295 135.896Q1.21536 135.37 1.41529 134.853Q1.61522 134.336 1.84211 133.831Q2.069 133.326 2.32222 132.833Q2.57544 132.34 2.85428 131.861Q3.13313 131.383 3.43682 130.919Q3.74051 130.456 4.06821 130.009Q4.39591 129.563 4.7467 129.134Q5.09749 128.705 5.4704 128.296Q5.84331 127.886 6.2373 127.497Q6.63129 127.107 7.04526 126.739L7.04526 126.739Z" id="path_2" />
    <path d="M69.0453 126.743L82.6355 114.658C82.6355 114.658 202.776 7.82312 202.776 7.82312C202.776 7.82312 211.165 -0.191195 220 0.00723831C228.835 0.20567 238.116 8.61685 238.116 8.61685L364.048 120.601L371.023 126.803Q371.433 127.168 371.823 127.553Q372.213 127.939 372.583 128.345Q372.952 128.751 373.299 129.175Q373.647 129.6 373.971 130.042Q374.296 130.484 374.597 130.943Q374.897 131.402 375.173 131.876Q375.45 132.35 375.7 132.838Q375.951 133.326 376.176 133.827Q376.4 134.327 376.598 134.839Q376.796 135.35 376.967 135.872Q377.138 136.393 377.281 136.923Q377.424 137.452 377.539 137.989Q377.654 138.525 377.74 139.067Q377.827 139.609 377.884 140.154Q377.942 140.7 377.971 141.248Q378 141.796 378 142.344L378 346.008Q378 346.523 377.975 347.038Q377.949 347.553 377.899 348.066Q377.848 348.579 377.773 349.089Q377.697 349.599 377.596 350.105Q377.496 350.61 377.371 351.11Q377.245 351.61 377.096 352.104Q376.946 352.597 376.772 353.082Q376.599 353.568 376.401 354.044Q376.204 354.52 375.984 354.986Q375.763 355.452 375.52 355.907Q375.277 356.362 375.012 356.804Q374.747 357.246 374.461 357.675Q374.174 358.103 373.867 358.517Q373.56 358.931 373.233 359.33Q372.906 359.728 372.56 360.11Q372.214 360.492 371.849 360.857Q371.485 361.221 371.103 361.568Q370.721 361.914 370.322 362.241Q369.924 362.568 369.51 362.875Q369.096 363.182 368.667 363.468Q368.238 363.755 367.796 364.02Q367.354 364.285 366.899 364.528Q366.445 364.771 365.979 364.991Q365.513 365.212 365.036 365.409Q364.56 365.606 364.075 365.78Q363.589 365.954 363.096 366.103Q362.603 366.253 362.103 366.378Q361.602 366.504 361.097 366.604Q360.591 366.705 360.081 366.78Q359.571 366.856 359.058 366.906Q358.545 366.957 358.03 366.982Q357.516 367.008 357 367.008L83 367.008Q82.4845 367.008 81.9696 366.982Q81.4547 366.957 80.9416 366.906Q80.4286 366.856 79.9187 366.78Q79.4087 366.705 78.9031 366.604Q78.3975 366.504 77.8974 366.378Q77.3973 366.253 76.904 366.103Q76.4107 365.954 75.9253 365.78Q75.4399 365.606 74.9636 365.409Q74.4874 365.212 74.0213 364.991Q73.5553 364.771 73.1007 364.528Q72.646 364.285 72.2038 364.02Q71.7617 363.755 71.333 363.468Q70.9044 363.182 70.4903 362.875Q70.0762 362.568 69.6777 362.241Q69.2792 361.914 68.8973 361.568Q68.5153 361.221 68.1508 360.857Q67.7862 360.492 67.44 360.11Q67.0938 359.728 66.7668 359.33Q66.4397 358.931 66.1326 358.517Q65.8255 358.103 65.5391 357.675Q65.2527 357.246 64.9877 356.804Q64.7227 356.362 64.4797 355.907Q64.2366 355.452 64.0162 354.986Q63.7958 354.52 63.5985 354.044Q63.4012 353.568 63.2276 353.082Q63.0539 352.597 62.9043 352.104Q62.7546 351.61 62.6293 351.11Q62.5041 350.61 62.4035 350.104Q62.3029 349.599 62.2273 349.089Q62.1516 348.579 62.1011 348.066Q62.0506 347.553 62.0253 347.038Q62 346.523 62 346.008L62 142.435Q62 141.881 62.0292 141.328Q62.0584 140.775 62.1168 140.224Q62.1751 139.673 62.2624 139.126Q62.3497 138.579 62.4657 138.037Q62.5817 137.496 62.7261 136.961Q62.8705 136.426 63.0429 135.9Q63.2154 135.373 63.4153 134.857Q63.6152 134.34 63.8421 133.835Q64.069 133.329 64.3222 132.836Q64.5754 132.344 64.8543 131.865Q65.1331 131.386 65.4368 130.923Q65.7405 130.46 66.0682 130.013Q66.3959 129.566 66.7467 129.138Q67.0975 128.709 67.4704 128.299Q67.8433 127.89 68.2373 127.5Q68.6313 127.111 69.0453 126.743L69.0453 126.743Z" id="path_3" />
    <clipPath id="clip_1">
      <use xlink:href="#path_1" clip-rule="evenodd" fill-rule="evenodd" />
    </clipPath>
    <clipPath id="clip_2">
      <use xlink:href="#path_2" clip-rule="evenodd" fill-rule="evenodd" />
    </clipPath>
    <clipPath id="clip_3">
      <use xlink:href="#path_2" />
    </clipPath>
    <clipPath id="clip_4">
      <use xlink:href="#path_3" />
    </clipPath>
  </defs>
  <g id="Icon 128">
    <path d="M512 0L512 0L512 512L0 512L0 0L512 0Z" id="Icon-128" fill="none" stroke="none" />
    <g id="Group" transform="translate(36 73)" clip-path="url(#clip_1)">
      <g id="sun-rays" transform="matrix(0.7431448 0.6691306 -0.6691306 0.7431448 255.81664 36.176918)">
        <path d="M54.0001 0L130 0L130 176.112L54.0001 176.112L54.0001 0Z" id="Rectangle-Copy-4" fill="#D3CF00" fill-rule="evenodd" stroke="none" />
        <path d="M0 1.53558e-05L76 1.53558e-05L76 176.112L0 176.112L0 1.53558e-05Z" id="Rectangle-Copy-3" fill="#F0AC00" fill-rule="evenodd" stroke="none" />
      </g>
      <g id="Oval-Union-Mask" transform="translate(62 0)">
        <g id="Mask">
          <g clip-path="url(#clip_3)">
            <use xlink:href="#path_2" fill="none" stroke="#000000" stroke-width="28" />
          </g>
        </g>
        <g clip-path="url(#clip_2)">
          <path d="M66 149.004C-11.8722 149.004 5.23213 161.468 5.23213 161.468L10.1749 357.534L114.362 357.756C114.122 360.81 114 363.894 114 367.004L311 367L311 278.879C311 278.879 332.871 239.004 254.999 239.004C236.761 239.004 219.331 242.147 203.332 247.87C188.805 191.214 132.832 149.004 66 149.004Z" id="Oval-Union" fill="#17FC50" fill-rule="evenodd" stroke="none" />
        </g>
      </g>
      <path d="M212.714 225.289C214.777 214.61 218.495 204.191 224.687 195.198C251.056 156.905 323.598 144.185 323.598 144.185L229 280.137L229 280.138L323.6 144.187C323.6 144.187 343.404 208.051 317.034 246.343C297.324 274.965 251.092 289.454 229 294.947L229 367.004L212 367.004L212 279.008C195.591 278.532 158.55 275.358 139.072 257.026C113.572 233.026 117.175 183.045 117.175 183.045L211.837 271.273L211.837 271.272L117.175 183.043C117.175 183.043 173.778 181.062 199.278 205.062C205.267 210.699 209.596 217.769 212.714 225.289Z" id="plant" fill="#000000" fill-rule="evenodd" stroke="none" />
      <path d="M433 353.004C436.867 353.004 440 356.137 440 360.004L440 360.004C440 363.87 436.867 367.004 433 367.004L7 367.004C3.13348 367.004 0 363.87 0 360.004L0 360.004C0 356.137 3.13348 353.004 7 353.004L433 353.004Z" id="Rectangle-3" fill="#000000" stroke="none" />
      <g id="greenhouse">
        <g clip-path="url(#clip_4)">
          <use xlink:href="#path_3" fill="none" stroke="#000000" stroke-width="28" />
        </g>
      </g>
    </g>
    <g id="Group" transform="translate(36 73)" clip-path="url(#clip_1)">
      <g id="sun-rays" transform="matrix(0.7431448 0.6691306 -0.6691306 0.7431448 255.81664 36.176918)">
        <path d="M54.0001 0L130 0L130 176.112L54.0001 176.112L54.0001 0Z" id="Rectangle-Copy-4" fill="#D3CF00" fill-rule="evenodd" stroke="none" />
        <path d="M0 1.53558e-05L76 1.53558e-05L76 176.112L0 176.112L0 1.53558e-05Z" id="Rectangle-Copy-3" fill="#F0AC00" fill-rule="evenodd" stroke="none" />
      </g>
      <g id="Oval-Union-Mask" transform="translate(62 0)">
        <g id="Mask">
          <g clip-path="url(#clip_3)">
            <use xlink:href="#path_2" fill="none" stroke="#000000" stroke-width="28" />
          </g>
        </g>
        <g clip-path="url(#clip_2)">
          <path d="M66 149.004C-11.8722 149.004 5.23213 161.468 5.23213 161.468L10.1749 357.534L114.362 357.756C114.122 360.81 114 363.894 114 367.004L311 367L311 278.879C311 278.879 332.871 239.004 254.999 239.004C236.761 239.004 219.331 242.147 203.332 247.87C188.805 191.214 132.832 149.004 66 149.004Z" id="Oval-Union" fill="#17FC50" fill-rule="evenodd" stroke="none" />
        </g>
      </g>
      <path d="M212.714 225.289C214.777 214.61 218.495 204.191 224.687 195.198C251.056 156.905 323.598 144.185 323.598 144.185L229 280.137L229 280.138L323.6 144.187C323.6 144.187 343.404 208.051 317.034 246.343C297.324 274.965 251.092 289.454 229 294.947L229 367.004L212 367.004L212 279.008C195.591 278.532 158.55 275.358 139.072 257.026C113.572 233.026 117.175 183.045 117.175 183.045L211.837 271.273L211.837 271.272L117.175 183.043C117.175 183.043 173.778 181.062 199.278 205.062C205.267 210.699 209.596 217.769 212.714 225.289Z" id="plant" fill="#000000" fill-rule="evenodd" stroke="none" />
      <path d="M433 353.004C436.867 353.004 440 356.137 440 360.004L440 360.004C440 363.87 436.867 367.004 433 367.004L7 367.004C3.13348 367.004 0 363.87 0 360.004L0 360.004C0 356.137 3.13348 353.004 7 353.004L433 353.004Z" id="Rectangle-3" fill="#000000" stroke="none" />
      <g id="greenhouse">
        <g clip-path="url(#clip_4)">
          <use xlink:href="#path_3" fill="none" stroke="#000000" stroke-width="28" />
        </g>
      </g>
    </g>
  </g>
</svg>