<?xml version="1.0" encoding="utf-8"?>
<svg width="512px" height="512px" viewBox="0 0 512 512" version="1.1" xmlns:xlink="http://www.w3.org/1999/xlink" xmlns="http://www.w3.org/2000/svg">
  <defs>
    <path d="M512 0L512 0L512 512L0 512L0 0L512 0Z" id="path_1" />
    <path d="M7.04526 126.739L20.6355 114.654C20.6355 114.654 140.776 7.8195 140.776 7.8195C140.776 7.8195 149.165 -0.194811 158 0.00362197C166.835 0.202054 176.116 8.61323 176.116 8.61323L302.048 120.597L309.023 126.8Q309.433 127.164 309.823 127.55Q310.213 127.935 310.583 128.341Q310.952 128.747 311.299 129.171Q311.647 129.596 311.971 130.038Q312.296 130.481 312.596 130.94Q312.897 131.398 313.173 131.872Q313.45 132.347 313.7 132.835Q313.951 133.322 314.176 133.823Q314.4 134.323 314.598 134.835Q314.796 135.347 314.967 135.868Q315.138 136.389 315.281 136.919Q315.424 137.449 315.539 137.985Q315.654 138.522 315.74 139.063Q315.827 139.605 315.884 140.151Q315.942 140.696 315.971 141.244Q316 141.792 316 142.341L316 346.004Q316 346.52 315.975 347.034Q315.949 347.549 315.899 348.062Q315.848 348.575 315.773 349.085Q315.697 349.595 315.596 350.101Q315.496 350.607 315.371 351.107Q315.245 351.607 315.096 352.1Q314.946 352.593 314.772 353.079Q314.599 353.564 314.401 354.04Q314.204 354.517 313.984 354.983Q313.763 355.449 313.52 355.903Q313.277 356.358 313.012 356.8Q312.747 357.242 312.461 357.671Q312.174 358.1 311.867 358.514Q311.56 358.928 311.233 359.326Q310.906 359.725 310.56 360.107Q310.214 360.489 309.849 360.853Q309.485 361.218 309.103 361.564Q308.721 361.91 308.322 362.237Q307.924 362.564 307.51 362.871Q307.096 363.178 306.667 363.465Q306.238 363.751 305.796 364.016Q305.354 364.281 304.899 364.524Q304.445 364.767 303.979 364.988Q303.513 365.208 303.036 365.405Q302.56 365.603 302.075 365.776Q301.589 365.95 301.096 366.1Q300.603 366.249 300.103 366.375Q299.602 366.5 299.097 366.6Q298.591 366.701 298.081 366.777Q297.571 366.852 297.058 366.903Q296.545 366.953 296.03 366.979Q295.516 367.004 295 367.004L21 367.004Q20.4845 367.004 19.9696 366.979Q19.4547 366.953 18.9416 366.903Q18.4286 366.852 17.9187 366.777Q17.4087 366.701 16.9031 366.6Q16.3975 366.5 15.8974 366.375Q15.3973 366.249 14.904 366.1Q14.4107 365.95 13.9253 365.776Q13.4399 365.603 12.9636 365.405Q12.4874 365.208 12.0213 364.988Q11.5553 364.767 11.1007 364.524Q10.646 364.281 10.2038 364.016Q9.76166 363.751 9.33302 363.465Q8.90438 363.178 8.49031 362.871Q8.07624 362.564 7.67774 362.237Q7.27924 361.91 6.89726 361.564Q6.51529 361.218 6.15076 360.853Q5.78623 360.489 5.44003 360.107Q5.09382 359.725 4.76678 359.326Q4.43974 358.928 4.13264 358.514Q3.82555 358.1 3.53914 357.671Q3.25273 357.242 2.9877 356.8Q2.72267 356.358 2.47965 355.903Q2.23664 355.449 2.01622 354.983Q1.79581 354.517 1.59853 354.04Q1.40125 353.564 1.22757 353.079Q1.0539 352.593 0.904253 352.1Q0.754605 351.607 0.629344 351.107Q0.504082 350.607 0.403509 350.101Q0.302936 349.595 0.227293 349.085Q0.151651 348.575 0.101121 348.062Q0.0505908 347.549 0.0252954 347.034Q0 346.52 0 346.004L0 142.432Q0 141.878 0.0292071 141.325Q0.0584143 140.771 0.116747 140.221Q0.17508 139.67 0.262377 139.123Q0.349674 138.576 0.465691 138.034Q0.581708 137.492 0.726124 136.957Q0.87054 136.423 1.04295 135.896Q1.21536 135.37 1.41529 134.853Q1.61522 134.336 1.84211 133.831Q2.069 133.326 2.32222 132.833Q2.57544 132.34 2.85428 131.861Q3.13313 131.383 3.43682 130.919Q3.74051 130.456 4.06821 130.009Q4.39591 129.563 4.7467 129.134Q5.09749 128.705 5.4704 128.296Q5.84331 127.886 6.2373 127.497Q6.63129 127.107 7.04526 126.739L7.04526 126.739Z" id="path_2" />
    <path d="M7.04526 126.743L20.6355 114.658C20.6355 114.658 140.776 7.82312 140.776 7.82312C140.776 7.82312 149.165 -0.191195 158 0.00723831C166.835 0.20567 176.116 8.61685 176.116 8.61685L302.048 120.601L309.023 126.803Q309.433 127.168 309.823 127.553Q310.213 127.939 310.583 128.345Q310.952 128.751 311.299 129.175Q311.647 129.6 311.971 130.042Q312.296 130.484 312.596 130.943Q312.897 131.402 313.173 131.876Q313.45 132.35 313.7 132.838Q313.951 133.326 314.176 133.827Q314.4 134.327 314.598 134.839Q314.796 135.35 314.967 135.872Q315.138 136.393 315.281 136.923Q315.424 137.452 315.539 137.989Q315.654 138.525 315.74 139.067Q315.827 139.609 315.884 140.154Q315.942 140.7 315.971 141.248Q316 141.796 316 142.344L316 346.008Q316 346.523 315.975 347.038Q315.949 347.553 315.899 348.066Q315.848 348.579 315.773 349.089Q315.697 349.599 315.596 350.105Q315.496 350.61 315.371 351.11Q315.245 351.61 315.096 352.104Q314.946 352.597 314.772 353.082Q314.599 353.568 314.401 354.044Q314.204 354.52 313.984 354.986Q313.763 355.452 313.52 355.907Q313.277 356.362 313.012 356.804Q312.747 357.246 312.461 357.675Q312.174 358.103 311.867 358.517Q311.56 358.931 311.233 359.33Q310.906 359.728 310.56 360.11Q310.214 360.492 309.849 360.857Q309.485 361.221 309.103 361.568Q308.721 361.914 308.322 362.241Q307.924 362.568 307.51 362.875Q307.096 363.182 306.667 363.468Q306.238 363.755 305.796 364.02Q305.354 364.285 304.899 364.528Q304.445 364.771 303.979 364.991Q303.513 365.212 303.036 365.409Q302.56 365.606 302.075 365.78Q301.589 365.954 301.096 366.103Q300.603 366.253 300.103 366.378Q299.602 366.504 299.097 366.604Q298.591 366.705 298.081 366.78Q297.571 366.856 297.058 366.906Q296.545 366.957 296.03 366.982Q295.516 367.008 295 367.008L21 367.008Q20.4845 367.008 19.9696 366.982Q19.4547 366.957 18.9416 366.906Q18.4286 366.856 17.9187 366.78Q17.4087 366.705 16.9031 366.604Q16.3975 366.504 15.8974 366.378Q15.3973 366.253 14.904 366.103Q14.4107 365.954 13.9253 365.78Q13.4399 365.606 12.9636 365.409Q12.4874 365.212 12.0213 364.991Q11.5553 364.771 11.1007 364.528Q10.646 364.285 10.2038 364.02Q9.76166 363.755 9.33302 363.468Q8.90438 363.182 8.49031 362.875Q8.07624 362.568 7.67774 362.241Q7.27924 361.914 6.89726 361.568Q6.51529 361.221 6.15076 360.857Q5.78623 360.492 5.44003 360.11Q5.09382 359.728 4.76678 359.33Q4.43974 358.931 4.13264 358.517Q3.82555 358.103 3.53914 357.675Q3.25273 357.246 2.9877 356.804Q2.72267 356.362 2.47965 355.907Q2.23664 355.452 2.01622 354.986Q1.79581 354.52 1.59853 354.044Q1.40125 353.568 1.22757 353.082Q1.0539 352.597 0.904253 352.104Q0.754605 351.61 0.629344 351.11Q0.504082 350.61 0.403509 350.104Q0.302936 349.599 0.227293 349.089Q0.151651 348.579 0.101121 348.066Q0.0505908 347.553 0.0252954 347.038Q0 346.523 0 346.008L0 142.435Q0 141.881 0.0292071 141.328Q0.0584143 140.775 0.116747 140.224Q0.17508 139.673 0.262377 139.126Q0.349674 138.579 0.465691 138.037Q0.581708 137.496 0.726124 136.961Q0.87054 136.426 1.04295 135.9Q1.21536 135.373 1.41529 134.857Q1.61522 134.34 1.84211 133.835Q2.069 133.329 2.32222 132.836Q2.57544 132.344 2.85428 131.865Q3.13313 131.386 3.43682 130.923Q3.74051 130.46 4.06821 130.013Q4.39591 129.566 4.7467 129.138Q5.09749 128.709 5.4704 128.299Q5.84331 127.89 6.2373 127.5Q6.63129 127.111 7.04526 126.743L7.04526 126.743Z" id="path_3" />
    <clipPath id="clip_1">
      <use xlink:href="#path_1" clip-rule="evenodd" fill-rule="evenodd" />
    </clipPath>
    <clipPath id="clip_2">
      <use xlink:href="#path_2" clip-rule="evenodd" fill-rule="evenodd" />
    </clipPath>
    <clipPath id="clip_3">
      <use xlink:href="#path_2" />
    </clipPath>
    <clipPath id="clip_4">
      <use xlink:href="#path_3" />
    </clipPath>
  </defs>
  <g id="Icon 128">
    <path d="M512 0L512 0L512 512L0 512L0 0L512 0Z" id="Icon-128" fill="none" stroke="none" />
    <g id="Group" transform="translate(98 73)" clip-path="url(#clip_1)">
      <g id="sun-rays" transform="matrix(0.7431448 0.6691306 -0.6691306 0.7431448 193.81659 36.176918)">
        <path d="M54.0001 0L130 0L130 176.112L54.0001 176.112L54.0001 0Z" id="Rectangle-Copy-4" fill="#D3CF00" fill-rule="evenodd" stroke="none" />
        <path d="M0 1.53558e-05L76 1.53558e-05L76 176.112L0 176.112L0 1.53558e-05Z" id="Rectangle-Copy-3" fill="#F0AC00" fill-rule="evenodd" stroke="none" />
      </g>
      <g id="Oval-Union-Mask">
        <g id="Mask">
          <g clip-path="url(#clip_3)">
            <use xlink:href="#path_2" fill="none" stroke="#000000" stroke-width="28" />
          </g>
        </g>
        <g clip-path="url(#clip_2)">
          <path d="M66 149.004C-11.8722 149.004 5.23213 161.468 5.23213 161.468L10.1749 357.534L114.362 357.756C114.122 360.81 114 363.894 114 367.004L311 367L311 278.879C311 278.879 332.871 239.004 254.999 239.004C236.761 239.004 219.331 242.147 203.332 247.87C188.805 191.214 132.832 149.004 66 149.004Z" id="Oval-Union" fill="#17FC50" fill-rule="evenodd" stroke="none" />
        </g>
      </g>
      <path d="M150.714 225.288C152.777 214.61 156.494 204.191 162.687 195.197C189.056 156.905 261.598 144.184 261.598 144.184L167 280.137L167 280.137L261.6 144.187C261.6 144.187 281.404 208.05 255.034 246.342C235.324 274.965 189.092 289.454 167 294.946L167 367.004L150 367.004L150 279.008C133.591 278.532 96.5496 275.358 77.0718 257.026C51.5717 233.026 55.1749 183.045 55.1749 183.045L149.837 271.273L149.837 271.272L55.1749 183.043C55.1749 183.043 111.778 181.062 137.278 205.062C143.267 210.699 147.596 217.769 150.714 225.288Z" id="plant" fill="#000000" fill-rule="evenodd" stroke="none" />
      <g id="greenhouse">
        <g clip-path="url(#clip_4)">
          <use xlink:href="#path_3" fill="none" stroke="#000000" stroke-width="28" />
        </g>
      </g>
    </g>
    <g id="Group" transform="translate(98 73)" clip-path="url(#clip_1)">
      <g id="sun-rays" transform="matrix(0.7431448 0.6691306 -0.6691306 0.7431448 193.81659 36.176918)">
        <path d="M54.0001 0L130 0L130 176.112L54.0001 176.112L54.0001 0Z" id="Rectangle-Copy-4" fill="#D3CF00" fill-rule="evenodd" stroke="none" />
        <path d="M0 1.53558e-05L76 1.53558e-05L76 176.112L0 176.112L0 1.53558e-05Z" id="Rectangle-Copy-3" fill="#F0AC00" fill-rule="evenodd" stroke="none" />
      </g>
      <g id="Oval-Union-Mask">
        <g id="Mask">
          <g clip-path="url(#clip_3)">
            <use xlink:href="#path_2" fill="none" stroke="#000000" stroke-width="28" />
          </g>
        </g>
        <g clip-path="url(#clip_2)">
          <path d="M66 149.004C-11.8722 149.004 5.23213 161.468 5.23213 161.468L10.1749 357.534L114.362 357.756C114.122 360.81 114 363.894 114 367.004L311 367L311 278.879C311 278.879 332.871 239.004 254.999 239.004C236.761 239.004 219.331 242.147 203.332 247.87C188.805 191.214 132.832 149.004 66 149.004Z" id="Oval-Union" fill="#17FC50" fill-rule="evenodd" stroke="none" />
        </g>
      </g>
      <path d="M150.714 225.288C152.777 214.61 156.494 204.191 162.687 195.197C189.056 156.905 261.598 144.184 261.598 144.184L167 280.137L167 280.137L261.6 144.187C261.6 144.187 281.404 208.05 255.034 246.342C235.324 274.965 189.092 289.454 167 294.946L167 367.004L150 367.004L150 279.008C133.591 278.532 96.5496 275.358 77.0718 257.026C51.5717 233.026 55.1749 183.045 55.1749 183.045L149.837 271.273L149.837 271.272L55.1749 183.043C55.1749 183.043 111.778 181.062 137.278 205.062C143.267 210.699 147.596 217.769 150.714 225.288Z" id="plant" fill="#000000" fill-rule="evenodd" stroke="none" />
      <g id="greenhouse">
        <g clip-path="url(#clip_4)">
          <use xlink:href="#path_3" fill="none" stroke="#000000" stroke-width="28" />
        </g>
      </g>
    </g>
  </g>
</svg>